<svg width="300" height="300" viewBox="0 0 300 300" fill="none" xmlns="http://www.w3.org/2000/svg">
<rect width="300" height="300" rx="51" fill="#1A1818"/>
<circle cx="31" cy="31" r="31" transform="matrix(1 0 0 -1 204 243)" fill="#FE3B3E"/>
<path d="M141.606 243L98.7887 168.6H75.507V243H45V57H109.225C123.498 57 135.54 59.4978 145.352 64.4935C155.343 69.4892 162.746 76.1799 167.563 84.5655C172.559 92.9511 175.056 102.318 175.056 112.666C175.056 124.799 171.488 135.86 164.352 145.852C157.394 155.665 146.601 162.355 131.972 165.924L178 243H141.606ZM75.507 144.246H109.225C120.643 144.246 129.207 141.391 134.915 135.682C140.803 129.973 143.746 122.301 143.746 112.666C143.746 103.032 140.892 95.5381 135.183 90.1856C129.474 84.6547 120.822 81.8892 109.225 81.8892H75.507V144.246Z" fill="white"/>
</svg>
