<svg width="61" height="61" viewBox="0 0 61 61" fill="none" xmlns="http://www.w3.org/2000/svg">
<rect x="0.5" y="0.5" width="60" height="60" rx="4.5" fill="#1E293B"/>
<rect x="0.5" y="0.5" width="60" height="60" rx="4.5" stroke="#1E293B"/>
<path d="M12.7083 29.2291C12.7083 18.7012 21.2429 10.1666 31.7708 10.1666C42.2987 10.1666 50.8333 18.7012 50.8333 29.2291C50.8333 39.757 42.2987 48.2916 31.7708 48.2916H12.7083L18.2916 42.7084C14.842 39.2587 12.7083 34.493 12.7083 29.2291ZM21.9125 44.4791H31.7708C40.1932 44.4791 47.0208 37.6515 47.0208 29.2291C47.0208 20.8068 40.1932 13.9791 31.7708 13.9791C23.3485 13.9791 16.5208 20.8068 16.5208 29.2291C16.5208 33.3321 18.1435 37.1685 20.9874 40.0126L23.6833 42.7084L21.9125 44.4791ZM29.8646 17.7916H33.6771V40.6666H29.8646V17.7916ZM22.2396 23.5104H26.0521V34.9479H22.2396V23.5104ZM37.4896 23.5104H41.3021V34.9479H37.4896V23.5104Z" fill="white"/>
<path d="M12.7083 29.2291C12.7083 18.7012 21.2429 10.1666 31.7708 10.1666C42.2987 10.1666 50.8333 18.7012 50.8333 29.2291C50.8333 39.757 42.2987 48.2916 31.7708 48.2916H12.7083L18.2916 42.7084C14.842 39.2587 12.7083 34.493 12.7083 29.2291ZM21.9125 44.4791H31.7708C40.1932 44.4791 47.0208 37.6515 47.0208 29.2291C47.0208 20.8068 40.1932 13.9791 31.7708 13.9791C23.3485 13.9791 16.5208 20.8068 16.5208 29.2291C16.5208 33.3321 18.1435 37.1685 20.9874 40.0126L23.6833 42.7084L21.9125 44.4791ZM29.8646 17.7916H33.6771V40.6666H29.8646V17.7916ZM22.2396 23.5104H26.0521V34.9479H22.2396V23.5104ZM37.4896 23.5104H41.3021V34.9479H37.4896V23.5104Z" fill="white"/>
</svg>
